HIERARCHY
ROOT hip
{
	OFFSET 0.000000 0.000000 0.000000 
	CHANNELS 6 Xposition Yposition Zposition Xrotation Zrotation Yrotation
	JOINT abdomen
	{
		OFFSET 0.000000 3.402643 0.000000 
		CHANNELS 3 Xrotation Zrotation Yrotation
		JOINT chest
		{
			OFFSET 0.000000 8.438565 -0.680529 
			CHANNELS 3 Xrotation Zrotation Yrotation
			JOINT neck
			{
				OFFSET 0.000000 10.207942 -0.272212 
				CHANNELS 3 Xrotation Zrotation Yrotation
				JOINT head
				{
					OFFSET 0.000000 3.130431 0.000000 
					CHANNELS 3 Xrotation Zrotation Yrotation
					End Site
					{
						OFFSET 0.000000 3.130435 0.000000 
					}
				}
			}
			JOINT lCollar
			{
				OFFSET 3.470700 6.669187 -0.816635 
				CHANNELS 3 Yrotation Zrotation Xrotation
				JOINT lShldr
				{
					OFFSET 3.198488 0.000000 0.000000 
					CHANNELS 3 Zrotation Yrotation Xrotation
					JOINT lForeArm
					{
						OFFSET 10.139888 0.000000 0.000000 
						CHANNELS 3 Yrotation Zrotation Xrotation
						JOINT lHand
						{
							OFFSET 8.370511 0.000000 0.000000 
							CHANNELS 3 Zrotation Yrotation Xrotation
							End Site
							{
								OFFSET 4.083176 0.000000 0.000000 
							}
						}
					}
				}
			}
			JOINT rCollar
			{
				OFFSET -3.470700 6.669187 -0.816635 
				CHANNELS 3 Yrotation Zrotation Xrotation
				JOINT rShldr
				{
					OFFSET -3.198488 0.000000 0.000000 
					CHANNELS 3 Zrotation Yrotation Xrotation
					JOINT rForeArm
					{
						OFFSET -10.139888 0.000000 0.000000 
						CHANNELS 3 Yrotation Zrotation Xrotation
						JOINT rHand
						{
							OFFSET -8.370511 0.000000 0.000000 
							CHANNELS 3 Zrotation Yrotation Xrotation
							End Site
							{
								OFFSET -4.083176 0.000000 0.000000 
							}
						}
					}
				}
			}
		}
	}
	JOINT lThigh
	{
		OFFSET 5.308129 -1.633274 1.361059 
		CHANNELS 3 Xrotation Zrotation Yrotation
		JOINT lShin
		{
			OFFSET -2.041588 -20.007561 0.000000 
			CHANNELS 3 Xrotation Zrotation Yrotation
			JOINT lFoot
			{
				OFFSET 0.000000 -19.190928 -1.224953 
				CHANNELS 3 Xrotation Yrotation Zrotation
				End Site
				{
					OFFSET 0.000000 -2.449906 4.627600 
				}
			}
		}
	}
	JOINT rThigh
	{
		OFFSET -5.308129 -1.633274 1.361059 
		CHANNELS 3 Xrotation Zrotation Yrotation
		JOINT rShin
		{
			OFFSET 2.041588 -20.007561 0.000000 
			CHANNELS 3 Xrotation Zrotation Yrotation
			JOINT rFoot
			{
				OFFSET 0.000000 -19.190928 -1.224953 
				CHANNELS 3 Xrotation Yrotation Zrotation
				End Site
				{
					OFFSET 0.000000 -2.449906 4.627600 
				}
			}
		}
	}
}
MOTION
Frames: 15
Frame Time: 0.011111
56.367428 52.692261 -6.442843 -2.596343 6.952498 -93.065247 10.281694 -3.574107 -1.135768 -25.002466 3.545018 -0.205062 -7.967411 1.348557 1.755674 16.664705 -4.140118 3.217768 -10.187975 -12.782608 -2.553061 -66.436707 -9.985771 -2.907674 -53.362141 8.395060 9.531252 8.524705 12.647240 -67.239632 11.162106 9.669281 -2.390417 62.514004 4.922569 9.852245 50.195847 -7.753694 8.238853 -8.534408 -12.637552 32.952980 -6.788838 2.627222 -21.680634 24.193840 -5.633810 -4.109516 -27.009636 21.006241 6.339443 -10.637295 -9.411006 19.496071 24.029654 5.610223 4.051157 -28.293520 -7.414101 -1.670276 
56.360352 52.685539 -6.438948 -2.616074 6.913011 -93.060616 10.291462 -3.578718 -1.158925 -24.992628 3.525552 -0.203387 -7.648178 1.403850 1.887369 16.395809 -4.071260 3.528732 -10.187975 -12.782608 -2.553061 -66.460114 -9.910529 -2.818861 -53.446171 8.410398 9.572286 8.524705 12.647240 -67.132217 11.162106 9.669281 -2.390417 62.502762 4.930432 9.902098 50.226860 -7.760425 8.258614 -8.534408 -12.637552 32.972515 -6.723402 2.607610 -21.684105 24.216223 -5.624524 -4.099754 -27.143339 20.893522 6.351035 -10.569627 -9.460060 19.429073 24.009615 5.610085 4.049376 -28.346071 -7.307982 -1.634457 
56.352211 52.678810 -6.444612 -2.558316 6.848479 -92.956566 10.417081 -3.506770 -1.290304 -24.943750 3.542589 -0.250196 -8.356824 1.473476 1.767789 16.937492 -4.284914 3.249331 -10.187975 -12.782608 -2.553061 -66.459488 -10.128671 -3.043589 -53.276775 8.374348 9.490864 8.524705 12.647240 -67.229874 11.162106 9.669281 -2.390417 62.448898 5.009903 10.002163 50.310856 -7.780612 8.287095 -8.534408 -12.637552 32.952980 -6.701942 2.685804 -21.519560 24.286083 -5.624678 -4.115648 -27.138912 20.647078 6.293558 -10.365316 -9.391965 19.435375 23.959206 5.614078 4.026340 -28.408194 -7.440164 -1.697148 
56.352211 52.676334 -6.449923 -2.534684 6.801658 -92.893135 10.639185 -3.425337 -1.541234 -24.826576 3.637574 -0.306539 -9.250770 1.490577 1.847471 17.747105 -4.284656 3.369421 -10.187975 -12.782608 -2.553061 -66.521667 -10.536469 -3.449208 -53.128891 8.344851 9.428694 8.524705 12.647240 -67.356819 11.162106 9.669281 -2.390417 62.260132 5.342645 10.234857 50.206524 -7.758023 8.247916 -8.534408 -12.637552 32.913925 -6.659167 2.695329 -21.541555 24.338524 -5.613977 -4.118828 -27.178144 20.587011 6.283705 -10.249393 -9.363206 19.483040 23.919123 5.613805 4.022780 -28.444206 -7.545825 -1.763161 
56.354691 52.680935 -6.449567 -2.524533 6.821236 -92.902679 10.667480 -3.389577 -1.601817 -24.689650 3.666587 -0.318823 -9.611740 1.309936 1.867717 17.728245 -4.188992 3.379276 -10.187975 -12.782608 -2.553061 -66.552628 -10.740357 -3.578971 -53.140965 8.353693 9.436150 8.524705 12.647240 -67.405647 11.162106 9.669281 -2.390417 62.171955 5.554855 10.382796 50.175316 -7.751892 8.236588 -8.534408 -12.637552 33.001812 -6.695247 2.675910 -21.627640 24.387976 -5.614201 -4.142691 -27.077019 20.809504 6.298585 -10.256673 -9.362099 19.532549 23.879042 5.613529 4.019219 -28.490141 -7.514799 -1.768694 
56.353271 52.684120 -6.449923 -2.513602 6.802094 -92.897461 10.589978 -3.407287 -1.530958 -24.689631 3.657802 -0.298832 -9.600257 1.256633 1.906115 18.069134 -4.053667 3.434913 -10.187975 -12.782608 -2.553061 -66.541878 -10.639246 -3.533987 -53.172047 8.358609 9.456832 8.524705 12.647240 -67.532608 11.162106 9.669281 -2.390417 62.213982 5.433475 10.353301 50.258080 -7.766529 8.268643 -8.534408 -12.637552 33.060406 -6.717787 2.714834 -21.361702 24.401339 -5.598549 -4.140462 -26.733721 20.785671 6.155615 -10.230916 -9.353963 19.482531 23.849173 5.609520 4.035248 -28.456457 -7.529045 -1.775233 
56.350445 52.683411 -6.451693 -2.509328 6.761930 -92.952263 10.485312 -3.486274 -1.288989 -24.797010 3.552971 -0.241646 -9.003939 1.381386 1.719692 17.702866 -4.185390 3.086689 -10.187975 -12.782608 -2.553061 -66.426277 -10.311316 -3.244107 -53.203316 8.362891 9.469199 8.524705 12.647240 -67.581436 11.162106 9.669281 -2.390417 62.449459 5.059660 10.146770 50.446426 -7.808976 8.337801 -8.534408 -12.637552 33.089699 -6.667391 2.724620 -21.207933 24.420391 -5.604711 -4.133748 -26.724348 20.716898 6.105600 -10.171885 -9.353705 19.443047 23.839149 5.609456 4.034360 -28.324383 -7.548707 -1.732223 
56.353626 52.682701 -6.451693 -2.534316 6.750804 -92.985481 10.418692 -3.555651 -1.127224 -24.904371 3.447846 -0.193820 -8.557574 1.269392 1.674997 17.468855 -3.894208 3.022290 -10.187975 -12.782608 -2.553061 -66.300690 -10.090804 -2.950672 -53.234585 8.367156 9.480158 8.524705 12.647240 -67.483780 11.162106 9.669281 -2.390417 62.635902 4.845697 9.968790 50.550785 -7.831077 8.378572 -8.534408 -12.637552 33.128765 -6.657344 2.695377 -21.316101 24.428688 -5.614312 -4.126796 -26.902962 20.727980 6.199874 -10.171119 -9.382633 19.444315 23.835852 5.624467 4.036356 -28.251600 -7.561533 -1.722958 
56.361412 52.683411 -6.447090 -2.554784 6.780509 -92.943039 10.419229 -3.590959 -1.107273 -24.953213 3.418955 -0.185419 -8.255371 1.423310 1.653821 16.852327 -4.044412 3.052559 -10.187975 -12.782608 -2.553061 -66.281075 -10.037754 -2.858758 -53.256256 8.373678 9.489377 8.524705 12.647240 -67.434952 11.162106 9.669281 -2.390417 62.650581 4.977505 9.738439 50.310856 -7.780612 8.287095 -8.534408 -12.637552 32.972515 -6.679853 2.666057 -21.334324 24.418928 -5.610106 -4.144513 -27.060411 20.595446 6.258621 -10.226399 -9.410429 19.445971 23.838892 5.613508 4.015711 -28.299852 -7.566596 -1.742198 
56.366722 52.684475 -6.442843 -2.544879 6.800692 -92.925232 10.410037 -3.611084 -1.022858 -24.943359 3.390787 -0.163752 -8.646304 1.406517 1.646838 17.379890 -3.848321 3.022646 -10.187975 -12.782608 -2.553061 -66.246788 -10.011886 -2.748243 -53.287521 8.377906 9.500349 8.524705 12.647240 -67.405647 11.162106 9.669281 -2.390417 62.706650 5.097084 9.455159 50.143078 -7.739485 8.219157 -8.534408 -12.637552 32.796734 -6.702805 2.714953 -21.215736 24.386257 -5.623725 -4.134845 -27.048819 20.438459 6.170052 -10.261692 -9.413201 19.425758 23.849173 5.609526 4.035249 -28.394812 -7.495987 -1.735561 
56.367428 52.685886 -6.444612 -2.543895 6.801000 -92.912605 10.399958 -3.599933 -1.069026 -24.972731 3.399922 -0.175768 -8.727063 1.596651 1.580286 17.489843 -4.229822 2.876486 -10.187975 -12.782608 -2.553061 -66.259720 -9.994320 -2.827138 -53.276775 8.374348 9.490864 8.524705 12.647240 -67.434952 11.162106 9.669281 -2.390417 62.736980 4.933840 9.574887 50.331394 -7.782364 8.288067 -8.534408 -12.637552 32.884624 -6.688902 2.714799 -21.176964 24.361235 -5.598561 -4.136961 -26.928389 20.475073 6.145638 -10.261310 -9.403268 19.454941 23.867092 5.620778 4.028561 -28.425865 -7.488686 -1.744448 
56.364952 52.684120 -6.447090 -2.540636 6.801322 -92.902153 10.409431 -3.588495 -1.116639 -25.021692 3.418731 -0.189495 -8.909443 1.505017 1.648293 17.947485 -4.129025 2.974594 -10.187975 -12.782608 -2.553061 -66.274384 -9.967136 -2.904341 -53.266033 8.370786 9.481377 8.524705 12.647240 -67.503304 11.162106 9.669281 -2.390417 62.737118 4.774963 9.726881 50.477642 -7.814945 8.347899 -8.534408 -12.637552 32.933453 -6.681199 2.695255 -21.344341 24.388638 -5.612549 -4.132698 -27.055393 20.560802 6.212145 -10.247907 -9.391820 19.474552 23.876554 5.624853 4.020509 -28.415499 -7.539452 -1.756227 
56.361057 52.681290 -6.447444 -2.539941 6.741296 -92.967499 10.535939 -3.564542 -1.173628 -24.855576 3.496258 -0.203196 -9.015680 1.502570 1.671117 17.536869 -4.261514 3.031804 -10.187975 -12.782608 -2.553061 -66.345848 -10.217791 -3.029601 -53.298450 8.380846 9.500095 8.524705 12.647240 -67.493546 11.162106 9.669281 -2.390417 62.555843 5.118956 9.821136 50.309830 -7.774375 8.279649 -8.534408 -12.637552 32.884624 -6.621523 2.695405 -21.367411 24.365929 -5.623545 -4.142766 -27.030550 20.691442 6.250222 -10.208023 -9.381669 19.513548 23.889063 5.613597 4.020109 -28.348778 -7.481751 -1.709933 
56.356457 52.674206 -6.447799 -2.547374 6.680933 -93.037857 10.748631 -3.491060 -1.390217 -24.581999 3.660219 -0.252960 -9.612391 1.210390 1.864784 17.650263 -3.965096 3.387501 -10.187975 -12.782608 -2.553061 -66.508957 -10.712812 -3.465921 -53.256256 8.373678 9.489377 8.524705 12.647240 -67.542366 11.162106 9.669281 -2.390417 62.218510 5.672638 10.168621 50.101192 -7.728959 8.200117 -8.534408 -12.637552 32.943211 -6.525907 2.646688 -21.382149 24.378271 -5.614188 -4.132097 -26.906794 20.888849 6.258096 -10.153350 -9.403015 19.464613 23.889317 5.609541 4.038754 -28.280703 -7.421675 -1.685183 
56.356457 52.670670 -6.447090 -2.506578 6.702544 -92.991966 10.698213 -3.409176 -1.437425 -24.552662 3.669182 -0.271060 -9.650185 1.001875 1.911340 17.581795 -3.671847 3.468830 -10.187975 -12.782608 -2.553061 -66.535507 -10.727417 -3.614691 -53.214241 8.365854 9.468935 8.524705 12.647240 -67.640022 11.162106 9.669281 -2.390417 62.158813 5.731187 10.270458 50.029106 -7.718450 8.177242 -8.534408 -12.637552 32.923683 -6.566013 2.714885 -21.400120 24.396635 -5.623588 -4.125979 -26.955124 20.793875 6.249272 -10.125429 -9.345010 19.442327 23.876814 5.620791 4.039156 -28.285107 -7.491060 -1.723249 
